<svg width="327" height="14" fill="none" xmlns="http://www.w3.org/2000/svg"><path d="M4.446 13.047c.815 1.242 2.85 1.242 3.665 0l3.67-5.592c.815-1.243-.203-2.796-1.833-2.796h-7.34C.98 4.659-.038 6.212.777 7.455l3.67 5.592zm15.733 0c.815 1.242 2.85 1.242 3.665 0l3.67-5.592c.815-1.243-.203-2.796-1.833-2.796h-7.34c-1.629 0-2.647 1.553-1.832 2.796l3.67 5.592zm15.733 0c.814 1.242 2.85 1.242 3.665 0l3.67-5.592c.815-1.243-.203-2.796-1.833-2.796h-7.34c-1.63 0-2.647 1.553-1.832 2.796l3.67 5.592zm15.732 0c.815 1.242 2.85 1.242 3.666 0l3.67-5.592c.814-1.243-.204-2.796-1.833-2.796h-7.34c-1.63 0-2.648 1.553-1.832 2.796l3.67 5.592zm15.733 0c.815 1.242 2.85 1.242 3.665 0l3.67-5.592c.815-1.243-.203-2.796-1.833-2.796h-7.34c-1.629 0-2.647 1.553-1.832 2.796l3.67 5.592zm15.733 0c.815 1.242 2.85 1.242 3.665 0l3.67-5.592c.815-1.243-.203-2.796-1.833-2.796h-7.34c-1.629 0-2.647 1.553-1.832 2.796l3.67 5.592zm15.733 0c.814 1.242 2.85 1.242 3.665 0l3.67-5.592c.815-1.243-.204-2.796-1.833-2.796h-7.34c-1.63 0-2.647 1.553-1.832 2.796l3.67 5.592zm15.732 0c.815 1.242 2.851 1.242 3.666 0l3.669-5.592c.815-1.243-.203-2.796-1.832-2.796h-7.34c-1.629 0-2.648 1.553-1.832 2.796l3.669 5.592zm15.733 0c.815 1.242 2.851 1.242 3.665 0l3.67-5.592c.815-1.243-.203-2.796-1.833-2.796h-7.339c-1.629 0-2.648 1.553-1.833 2.796l3.67 5.592zm15.733 0c.815 1.242 2.85 1.242 3.665 0l3.67-5.592c.815-1.243-.203-2.796-1.833-2.796h-7.339c-1.63 0-2.648 1.553-1.833 2.796l3.67 5.592zm15.733 0c.814 1.242 2.85 1.242 3.665 0l3.67-5.592c.815-1.243-.204-2.796-1.833-2.796h-7.339c-1.63 0-2.648 1.553-1.833 2.796l3.67 5.592zm15.732 0c.815 1.242 2.851 1.242 3.666 0l3.669-5.592c.816-1.243-.203-2.796-1.832-2.796h-7.34c-1.629 0-2.647 1.553-1.832 2.796l3.669 5.592zm15.733 0c.815 1.242 2.851 1.242 3.665 0l3.67-5.592c.815-1.243-.203-2.796-1.833-2.796h-7.339c-1.629 0-2.648 1.553-1.833 2.796l3.67 5.592zm15.733 0c.815 1.242 2.85 1.242 3.665 0l3.67-5.592c.815-1.243-.203-2.796-1.833-2.796h-7.339c-1.63 0-2.648 1.553-1.833 2.796l3.67 5.592zm15.733 0c.815 1.242 2.85 1.242 3.665 0l3.67-5.592c.815-1.243-.203-2.796-1.833-2.796h-7.339c-1.63 0-2.648 1.553-1.833 2.796l3.67 5.592zm15.732 0c.815 1.242 2.851 1.242 3.666 0l3.669-5.592c.816-1.243-.203-2.796-1.832-2.796h-7.34c-1.629 0-2.647 1.553-1.832 2.796l3.669 5.592zm15.733 0c.815 1.242 2.851 1.242 3.665 0l3.67-5.592c.815-1.243-.203-2.796-1.832-2.796h-7.34c-1.629 0-2.648 1.553-1.833 2.796l3.67 5.592zm15.733 0c.815 1.242 2.851 1.242 3.665 0l3.67-5.592c.815-1.243-.203-2.796-1.833-2.796h-7.339c-1.63 0-2.648 1.553-1.833 2.796l3.67 5.592zm15.216 0c.815 1.242 2.851 1.242 3.665 0l3.67-5.592c.815-1.243-.203-2.796-1.833-2.796h-7.339c-1.63 0-2.648 1.553-1.833 2.796l3.67 5.592zm15.885 0c.815 1.242 2.85 1.242 3.665 0l3.67-5.592c.815-1.243-.203-2.796-1.833-2.796h-7.339c-1.63 0-2.648 1.553-1.833 2.796l3.67 5.592zm15.885 0c.815 1.242 2.85 1.242 3.665 0l3.67-5.592c.815-1.243-.203-2.796-1.833-2.796h-7.339c-1.63 0-2.648 1.553-1.833 2.796l3.67 5.592z" fill="#fff"/><path d="M0 6.522c0 .515.474.932 1.058.932h324.884c.584 0 1.058-.417 1.058-.932V0H0v6.522z" fill="#fff"/></svg>